Coordinates
version=1
nRows=8
nColumns=40
inDegrees=yes

Units are S.I. units (second, meters, Newtons, ...)
If the header above contains a line with 'inDegrees', this indicates whether rotational values are in degrees (yes) or radians (no).

endheader
time	pelvis_tilt	pelvis_list	pelvis_rotation	pelvis_tx	pelvis_ty	pelvis_tz	hip_flexion_r	hip_adduction_r	hip_rotation_r	knee_angle_r	knee_angle_r_beta	ankle_angle_r	subtalar_angle_r	mtp_angle_r	hip_flexion_l	hip_adduction_l	hip_rotation_l	knee_angle_l	knee_angle_l_beta	ankle_angle_l	subtalar_angle_l	mtp_angle_l	lumbar_extension	lumbar_bending	lumbar_rotation	arm_flex_r	arm_add_r	arm_rot_r	elbow_flex_r	pro_sup_r	wrist_flex_r	wrist_dev_r	arm_flex_l	arm_add_l	arm_rot_l	elbow_flex_l	pro_sup_l	wrist_flex_l	wrist_dev_l
      4.90000000	     15.83065686	     -7.93794995	     -5.20491232	     -0.32763246	      0.89135791	     -1.03517317	     36.90885296	      6.93517683	    -12.04816542	      5.01639737	      0.08755265	     -1.26792179	      0.00000000	      0.00000000	     21.39731096	    -11.76027712	    -12.29423146	     74.72974315	      1.30428007	     24.71684185	      0.00000000	      0.00000000	    -27.79419172	     -1.76722059	      9.02196784	     89.89285573	    -18.75902754	     37.31215402	     34.15809193	     85.26088706	      0.00000000	      0.00000000	     89.93460456	    -19.15250343	     42.28406344	     45.44455263	     86.14628611	      0.00000000	      0.00000000
      4.90500000	     15.91481223	     -7.88678058	     -5.16416097	     -0.32731758	      0.89280415	     -1.03521995	     36.69159928	      6.87430307	    -12.02729422	      5.01734572	      0.08756920	     -1.19787094	      0.00000000	      0.00000000	     21.09198685	    -11.64390555	    -12.31339016	     74.29767737	      1.29673910	     24.47974711	      0.00000000	      0.00000000	    -27.81020616	     -1.78811729	      8.94455550	     89.89263858	    -18.77616646	     37.60196938	     34.09332022	     85.28990286	      0.00000000	      0.00000000	     89.93488540	    -19.25268535	     42.57283811	     45.42710849	     86.16249084	      0.00000000	      0.00000000
      4.91000000	     15.83006987	     -7.95081082	     -5.16164257	     -0.32705363	      0.89394627	     -1.03512132	     36.66445427	      6.93447012	    -12.00116010	      5.03780901	      0.08792635	     -1.21674401	      0.00000000	      0.00000000	     21.04108907	    -11.71041500	    -12.32209749	     74.07527945	      1.29285752	     24.42744930	      0.00000000	      0.00000000	    -27.68502512	     -1.71113898	      8.94584693	     89.89147432	    -18.80034547	     37.62740842	     34.09697427	     85.29023442	      0.00000000	      0.00000000	     89.93413013	    -19.29453338	     42.58344448	     45.43418113	     86.15911981	      0.00000000	      0.00000000
      4.91500000	     15.75237692	     -7.97758950	     -5.16049298	     -0.32683911	      0.89499608	     -1.03517717	     36.64325760	      6.95468659	    -11.98775502	      5.07303743	      0.08854121	     -1.23336207	      0.00000000	      0.00000000	     21.00051855	    -11.72304030	    -12.31523727	     73.85868234	      1.28907719	     24.36075228	      0.00000000	      0.00000000	    -27.57481965	     -1.66372387	      8.94274421	     89.89093140	    -18.83355633	     37.65397499	     34.07797570	     85.29168486	      0.00000000	      0.00000000	     89.93363929	    -19.32262202	     42.61719557	     45.43761586	     86.16026561	      0.00000000	      0.00000000
      4.92000000	     15.69840676	     -8.01110282	     -5.17546631	     -0.32660366	      0.89629772	     -1.03507554	     36.59436835	      7.01156221	    -12.02366463	      5.11568167	      0.08928549	     -1.22026314	      0.00000000	      0.00000000	     20.89378752	    -11.74037097	    -12.33650031	     73.57872951	      1.28419109	     24.24903342	      0.00000000	      0.00000000	    -27.47202476	     -1.62622490	      8.93853425	     89.88975130	    -18.83578680	     37.73420013	     34.07116709	     85.29846777	      0.00000000	      0.00000000	     89.93333777	    -19.36278527	     42.71034092	     45.41934864	     86.16618164	      0.00000000	      0.00000000
      4.92500000	     15.65500152	     -8.02147903	     -5.16878687	     -0.32639922	      0.89753524	     -1.03500682	     36.55052342	      7.01353042	    -12.04171810	      5.21651279	      0.09104532	     -1.35234249	      0.00000000	      0.00000000	     20.78731772	    -11.75740942	    -12.38561730	     73.29023787	      1.27915596	     24.11561012	      0.00000000	      0.00000000	    -27.38132706	     -1.59385899	      8.93530261	     89.88900063	    -18.85673929	     37.83535310	     34.01688029	     85.30624094	      0.00000000	      0.00000000	     89.93302321	    -19.40123893	     42.84669976	     45.40105565	     86.17774019	      0.00000000	      0.00000000
      4.93000000	     15.61347923	     -8.02122563	     -5.17080573	     -0.32599097	      0.89858396	     -1.03492583	     36.48613346	      7.02580586	    -12.05967982	      5.21860318	      0.09108181	     -1.32592027	      0.00000000	      0.00000000	     20.75740735	    -11.76352552	    -12.38974112	     73.23299593	      1.27815690	     24.09653354	      0.00000000	      0.00000000	    -27.29096175	     -1.59341529	      8.92195741	     89.88703452	    -18.87250957	     37.82595847	     34.03180240	     85.30452918	      0.00000000	      0.00000000	     89.93284130	    -19.41792090	     42.82296255	     45.41681105	     86.17485339	      0.00000000	      0.00000000
      4.93500000	     15.70849470	     -7.99225765	     -5.10133538	     -0.32565813	      0.90017555	     -1.03499838	     36.24016207	      6.95109283	    -12.05228631	      5.23929903	      0.09144302	     -1.07385303	      0.00000000	      0.00000000	     20.41367346	    -11.67295239	    -12.41745498	     72.76794445	      1.27004022	     23.81405228	      0.00000000	      0.00000000	    -27.31320229	     -1.59080583	      8.81679725	     89.88932016	    -18.89519135	     38.25934180	     33.92534674	     85.34456604	      0.00000000	      0.00000000	     89.93312532	    -19.56015214	     43.19497240	     45.41361720	     86.19673269	      0.00000000	      0.00000000
